<svg width="359" height="116" viewBox="0 0 359 116" fill="none" xmlns="http://www.w3.org/2000/svg">
<path d="M111.591 66.2445C113.887 65.5177 115.448 63.3868 115.448 60.9782V55.0969C115.448 52.687 113.885 50.5553 111.587 49.8296L105.214 47.8168C103.381 47.238 102.005 45.74 101.417 43.9099C100.648 41.5143 99.6891 39.2021 98.5519 36.9913C97.6713 35.2794 97.5821 33.2438 98.4693 31.5353L101.593 25.5213C102.701 23.3881 102.302 20.7834 100.606 19.0794L96.4891 14.9411C94.7822 13.2255 92.1573 12.8208 90.0129 13.9425L84.0613 17.0559C82.3472 17.9526 80.3007 17.8635 78.5801 16.9795C76.4202 15.8697 74.1592 14.9328 71.8087 14.1746C69.9802 13.5849 68.4859 12.2059 67.9109 10.3727L65.8718 3.87083C65.1495 1.56749 63.0151 0 60.6011 0H54.7744C52.3605 0 50.2261 1.56749 49.5037 3.87082L47.4626 10.3793C46.8887 12.209 45.3992 13.5868 43.5747 14.1768C41.2345 14.9336 38.9695 15.8683 36.8082 16.9752C35.0801 17.8603 33.025 17.946 31.3078 17.0397L25.4776 13.9628C23.3307 12.8298 20.6957 13.2312 18.9836 14.9521L14.8412 19.1156C13.1459 20.8196 12.7471 23.4243 13.8549 25.5575L16.9897 31.5935C17.8708 33.29 17.7906 35.3107 16.9167 37.0109C15.7803 39.222 14.8087 41.5315 14.0318 43.9395C13.4405 45.7723 12.0634 47.2752 10.227 47.8551L3.86032 49.8658C1.56231 50.5915 0 52.7233 0 55.1332V61.0184C0 63.425 1.55821 65.5547 3.85202 66.2831L10.1619 68.2868C11.9944 68.8687 13.3688 70.3695 13.9514 72.2017C14.7249 74.6349 15.6912 76.9834 16.838 79.2291C17.7111 80.9389 17.7941 82.9687 16.9068 84.6712L13.8628 90.5122C12.7506 92.6464 13.1481 95.255 14.8454 96.9611L18.9542 101.091C20.6632 102.808 23.292 103.212 25.4374 102.086L31.2083 99.0566C32.9211 98.1575 34.9681 98.2426 36.6869 99.1302C38.9211 100.284 41.2652 101.264 43.6952 102.045C45.5318 102.635 47.0355 104.018 47.6123 105.859L49.5765 112.128C50.2984 114.432 52.4331 116 54.8476 116H60.672C63.0865 116 65.2213 114.432 65.9432 112.128L67.9074 105.859C68.4842 104.018 69.988 102.636 71.8241 102.044C74.2557 101.26 76.5972 100.276 78.8426 99.1176C80.5545 98.2342 82.5925 98.1543 84.2983 99.0497L90.0822 102.086C92.2276 103.212 94.8564 102.808 96.5654 101.091L100.681 96.9538C102.375 95.2513 102.775 92.6493 101.67 90.5168L98.6021 84.5945C97.7212 82.8941 97.8063 80.8699 98.6777 79.1645C99.8257 76.9175 100.793 74.5674 101.567 72.1326C102.15 70.2986 103.527 68.7969 105.362 68.2161L111.591 66.2445ZM57.7418 91.0578C40.92 91.0578 24.9435 75.0162 24.9435 58.1086C24.9435 41.201 40.92 25.1594 57.7418 25.1594C74.5637 25.1594 90.5041 41.201 90.5041 58.1086C90.5041 75.0524 74.5637 91.0578 57.7418 91.0578Z" fill="#8C7EFE"/>
<path d="M46.4345 45.3284C45.5071 45.3284 44.7532 44.9216 44.1729 44.1082C43.5977 43.2947 43.3102 42.1885 43.3102 40.7895C43.3102 39.3905 43.5977 38.2843 44.1729 37.4709C44.7532 36.6574 45.5071 36.2506 46.4345 36.2506C47.3723 36.2506 48.1288 36.6574 48.7039 37.4709C49.2791 38.2843 49.5666 39.3905 49.5666 40.7895C49.5666 42.1885 49.2791 43.2947 48.7039 44.1082C48.1288 44.9216 47.3723 45.3284 46.4345 45.3284ZM46.4345 44.4735C47.1599 44.4735 47.6832 44.1004 48.0045 43.3543C48.3309 42.6082 48.4941 41.7532 48.4941 40.7895C48.4941 39.831 48.3309 38.9786 48.0045 38.2325C47.6832 37.4812 47.1599 37.1056 46.4345 37.1056C45.7143 37.1056 45.191 37.4812 44.8646 38.2325C44.5433 38.9786 44.3827 39.831 44.3827 40.7895C44.3827 41.7532 44.5433 42.6082 44.8646 43.3543C45.191 44.1004 45.7143 44.4735 46.4345 44.4735ZM53.6159 45.0719V37.5719L51.8827 38.2636V37.3076L53.6159 36.5071H54.6418V45.0719H53.6159ZM61.1547 45.0719V37.5719L59.4216 38.2636V37.3076L61.1547 36.5071H62.1807V45.0719H61.1547ZM68.6936 45.0719V37.5719L66.9604 38.2636V37.3076L68.6936 36.5071H69.7195V45.0719H68.6936ZM46.077 61.0719V53.5719L44.3438 54.2636V53.3076L46.077 52.5071H47.1029V61.0719H46.077ZM53.6159 61.0719V53.5719L51.8827 54.2636V53.3076L53.6159 52.5071H54.6418V61.0719H53.6159ZM61.5123 61.3284C60.5848 61.3284 59.8309 60.9216 59.2506 60.1082C58.6755 59.2947 58.3879 58.1885 58.3879 56.7895C58.3879 55.3905 58.6755 54.2843 59.2506 53.4709C59.8309 52.6574 60.5848 52.2506 61.5123 52.2506C62.4501 52.2506 63.2066 52.6574 63.7817 53.4709C64.3568 54.2843 64.6444 55.3905 64.6444 56.7895C64.6444 58.1885 64.3568 59.2947 63.7817 60.1082C63.2066 60.9216 62.4501 61.3284 61.5123 61.3284ZM61.5123 60.4735C62.2376 60.4735 62.761 60.1004 63.0822 59.3543C63.4086 58.6082 63.5718 57.7532 63.5718 56.7895C63.5718 55.831 63.4086 54.9786 63.0822 54.2325C62.761 53.4812 62.2376 53.1056 61.5123 53.1056C60.792 53.1056 60.2687 53.4812 59.9423 54.2325C59.6211 54.9786 59.4604 55.831 59.4604 56.7895C59.4604 57.7532 59.6211 58.6082 59.9423 59.3543C60.2687 60.1004 60.792 60.4735 61.5123 60.4735ZM68.6936 61.0719V53.5719L66.9604 54.2636V53.3076L68.6936 52.5071H69.7195V61.0719H68.6936ZM46.077 77.0719V69.5719L44.3438 70.2636V69.3076L46.077 68.5071H47.1029V77.0719H46.077ZM53.6159 77.0719V69.5719L51.8827 70.2636V69.3076L53.6159 68.5071H54.6418V77.0719H53.6159ZM61.1547 77.0719V69.5719L59.4216 70.2636V69.3076L61.1547 68.5071H62.1807V77.0719H61.1547ZM68.6936 77.0719V69.5719L66.9604 70.2636V69.3076L68.6936 68.5071H69.7195V77.0719H68.6936Z" fill="#333333"/>
<path d="M44.1729 44.1082L43.67 44.4637L43.6716 44.4658L44.1729 44.1082ZM44.1729 37.4709L43.6715 37.1132L43.67 37.1154L44.1729 37.4709ZM48.7039 37.4709L48.2011 37.8263L48.7039 37.4709ZM48.0045 43.3543L47.4403 43.1075L47.4389 43.1108L48.0045 43.3543ZM48.0045 38.2325L47.4382 38.4746L47.4403 38.4793L48.0045 38.2325ZM44.8646 38.2325L44.2998 37.9871L44.299 37.989L44.8646 38.2325ZM44.8646 43.3543L44.299 43.5978L44.3004 43.6011L44.8646 43.3543ZM46.4345 44.7126C45.7234 44.7126 45.1494 44.4167 44.6742 43.7506L43.6716 44.4658C44.357 45.4266 45.2907 45.9442 46.4345 45.9442V44.7126ZM44.6757 43.7527C44.1983 43.0776 43.9259 42.111 43.9259 40.7895H42.6944C42.6944 42.266 42.9971 43.5118 43.67 44.4637L44.6757 43.7527ZM43.9259 40.7895C43.9259 39.468 44.1983 38.5015 44.6757 37.8263L43.67 37.1154C42.9971 38.0672 42.6944 39.313 42.6944 40.7895H43.9259ZM44.6742 37.8285C45.1494 37.1623 45.7234 36.8664 46.4345 36.8664V35.6349C45.2907 35.6349 44.357 36.1525 43.6716 37.1132L44.6742 37.8285ZM46.4345 36.8664C47.1582 36.8664 47.7329 37.1641 48.2011 37.8263L49.2068 37.1154C48.5247 36.1506 47.5865 35.6349 46.4345 35.6349V36.8664ZM48.2011 37.8263C48.6785 38.5015 48.9509 39.468 48.9509 40.7895H50.1824C50.1824 39.313 49.8797 38.0672 49.2068 37.1154L48.2011 37.8263ZM48.9509 40.7895C48.9509 42.111 48.6785 43.0776 48.2011 43.7527L49.2068 44.4637C49.8797 43.5118 50.1824 42.266 50.1824 40.7895H48.9509ZM48.2011 43.7527C47.7329 44.4149 47.1582 44.7126 46.4345 44.7126V45.9442C47.5865 45.9442 48.5247 45.4284 49.2068 44.4637L48.2011 43.7527ZM46.4345 45.0892C46.9082 45.0892 47.3493 44.9654 47.7285 44.6951C48.1031 44.428 48.3765 44.0472 48.5701 43.5978L47.4389 43.1108C47.3111 43.4074 47.1623 43.5862 47.0136 43.6922C46.8695 43.795 46.6862 43.8577 46.4345 43.8577V45.0892ZM48.5686 43.6011C48.9348 42.7642 49.1099 41.8228 49.1099 40.7895H47.8783C47.8783 41.6836 47.727 42.4521 47.4403 43.1075L48.5686 43.6011ZM49.1099 40.7895C49.1099 39.7609 48.9346 38.8222 48.5686 37.9857L47.4403 38.4793C47.7272 39.1351 47.8783 39.9011 47.8783 40.7895H49.1099ZM48.5707 37.9904C48.3776 37.5388 48.1046 37.1558 47.7301 36.8871C47.3508 36.6148 46.9091 36.4898 46.4345 36.4898V37.7214C46.6853 37.7214 46.8679 37.7842 47.012 37.8876C47.1608 37.9944 47.3101 38.1749 47.4383 38.4746L48.5707 37.9904ZM46.4345 36.4898C45.9615 36.4898 45.5213 36.6153 45.1428 36.8871C44.7694 37.1551 44.4954 37.5368 44.2998 37.9871L45.4293 38.4779C45.5601 38.1769 45.7111 37.9952 45.861 37.8876C46.0057 37.7836 46.1874 37.7214 46.4345 37.7214V36.4898ZM44.299 37.989C43.9392 38.8246 43.7669 39.7621 43.7669 40.7895H44.9985C44.9985 39.8998 45.1474 39.1327 45.4302 38.476L44.299 37.989ZM43.7669 40.7895C43.7669 41.8216 43.939 42.7618 44.299 43.5978L45.4302 43.1108C45.1476 42.4545 44.9985 41.6849 44.9985 40.7895H43.7669ZM44.3004 43.6011C44.4965 44.0493 44.7709 44.4288 45.1444 44.6951C45.5228 44.9648 45.9624 45.0892 46.4345 45.0892V43.8577C46.1864 43.8577 46.0042 43.7955 45.8593 43.6922C45.7096 43.5855 45.5591 43.4054 45.4287 43.1075L44.3004 43.6011ZM53.6159 45.0719H53.0001V45.6877H53.6159V45.0719ZM53.6159 37.5719H54.2317V36.6631L53.3876 37L53.6159 37.5719ZM51.8827 38.2636H51.2669V39.1724L52.111 38.8355L51.8827 38.2636ZM51.8827 37.3076L51.6245 36.7486L51.2669 36.9138V37.3076H51.8827ZM53.6159 36.5071V35.8913H53.4805L53.3577 35.9481L53.6159 36.5071ZM54.6418 36.5071H55.2576V35.8913H54.6418V36.5071ZM54.6418 45.0719V45.6877H55.2576V45.0719H54.6418ZM54.2317 45.0719V37.5719H53.0001V45.0719H54.2317ZM53.3876 37L51.6545 37.6917L52.111 38.8355L53.8441 38.1438L53.3876 37ZM52.4985 38.2636V37.3076H51.2669V38.2636H52.4985ZM52.1409 37.8667L53.8741 37.0662L53.3577 35.9481L51.6245 36.7486L52.1409 37.8667ZM53.6159 37.1229H54.6418V35.8913H53.6159V37.1229ZM54.026 36.5071V45.0719H55.2576V36.5071H54.026ZM54.6418 44.4561H53.6159V45.6877H54.6418V44.4561ZM61.1547 45.0719H60.539V45.6877H61.1547V45.0719ZM61.1547 37.5719H61.7705V36.6631L60.9265 37L61.1547 37.5719ZM59.4216 38.2636H58.8058V39.1724L59.6498 38.8355L59.4216 38.2636ZM59.4216 37.3076L59.1634 36.7486L58.8058 36.9138V37.3076H59.4216ZM61.1547 36.5071V35.8913H61.0194L60.8965 35.9481L61.1547 36.5071ZM62.1807 36.5071H62.7964V35.8913H62.1807V36.5071ZM62.1807 45.0719V45.6877H62.7964V45.0719H62.1807ZM61.7705 45.0719V37.5719H60.539V45.0719H61.7705ZM60.9265 37L59.1933 37.6917L59.6498 38.8355L61.383 38.1438L60.9265 37ZM60.0374 38.2636V37.3076H58.8058V38.2636H60.0374ZM59.6798 37.8667L61.413 37.0662L60.8965 35.9481L59.1634 36.7486L59.6798 37.8667ZM61.1547 37.1229H62.1807V35.8913H61.1547V37.1229ZM61.5649 36.5071V45.0719H62.7964V36.5071H61.5649ZM62.1807 44.4561H61.1547V45.6877H62.1807V44.4561ZM68.6936 45.0719H68.0778V45.6877H68.6936V45.0719ZM68.6936 37.5719H69.3094V36.6631L68.4654 37L68.6936 37.5719ZM66.9604 38.2636H66.3447V39.1724L67.1887 38.8355L66.9604 38.2636ZM66.9604 37.3076L66.7022 36.7486L66.3447 36.9138V37.3076H66.9604ZM68.6936 36.5071V35.8913H68.5583L68.4354 35.9481L68.6936 36.5071ZM69.7195 36.5071H70.3353V35.8913H69.7195V36.5071ZM69.7195 45.0719V45.6877H70.3353V45.0719H69.7195ZM69.3094 45.0719V37.5719H68.0778V45.0719H69.3094ZM68.4654 37L66.7322 37.6917L67.1887 38.8355L68.9219 38.1438L68.4654 37ZM67.5762 38.2636V37.3076H66.3447V38.2636H67.5762ZM67.2187 37.8667L68.9518 37.0662L68.4354 35.9481L66.7022 36.7486L67.2187 37.8667ZM68.6936 37.1229H69.7195V35.8913H68.6936V37.1229ZM69.1037 36.5071V45.0719H70.3353V36.5071H69.1037ZM69.7195 44.4561H68.6936V45.6877H69.7195V44.4561ZM46.077 61.0719H45.4612V61.6877H46.077V61.0719ZM46.077 53.5719H46.6928V52.6631L45.8487 53L46.077 53.5719ZM44.3438 54.2636H43.7281V55.1724L44.5721 54.8355L44.3438 54.2636ZM44.3438 53.3076L44.0856 52.7486L43.7281 52.9138V53.3076H44.3438ZM46.077 52.5071V51.8913H45.9417L45.8188 51.9481L46.077 52.5071ZM47.1029 52.5071H47.7187V51.8913H47.1029V52.5071ZM47.1029 61.0719V61.6877H47.7187V61.0719H47.1029ZM46.6928 61.0719V53.5719H45.4612V61.0719H46.6928ZM45.8487 53L44.1156 53.6917L44.5721 54.8355L46.3053 54.1438L45.8487 53ZM44.9596 54.2636V53.3076H43.7281V54.2636H44.9596ZM44.602 53.8667L46.3352 53.0662L45.8188 51.9481L44.0856 52.7486L44.602 53.8667ZM46.077 53.1229H47.1029V51.8913H46.077V53.1229ZM46.4871 52.5071V61.0719H47.7187V52.5071H46.4871ZM47.1029 60.4561H46.077V61.6877H47.1029V60.4561ZM53.6159 61.0719H53.0001V61.6877H53.6159V61.0719ZM53.6159 53.5719H54.2317V52.6631L53.3876 53L53.6159 53.5719ZM51.8827 54.2636H51.2669V55.1724L52.111 54.8355L51.8827 54.2636ZM51.8827 53.3076L51.6245 52.7486L51.2669 52.9138V53.3076H51.8827ZM53.6159 52.5071V51.8913H53.4805L53.3577 51.9481L53.6159 52.5071ZM54.6418 52.5071H55.2576V51.8913H54.6418V52.5071ZM54.6418 61.0719V61.6877H55.2576V61.0719H54.6418ZM54.2317 61.0719V53.5719H53.0001V61.0719H54.2317ZM53.3876 53L51.6545 53.6917L52.111 54.8355L53.8441 54.1438L53.3876 53ZM52.4985 54.2636V53.3076H51.2669V54.2636H52.4985ZM52.1409 53.8667L53.8741 53.0662L53.3577 51.9481L51.6245 52.7486L52.1409 53.8667ZM53.6159 53.1229H54.6418V51.8913H53.6159V53.1229ZM54.026 52.5071V61.0719H55.2576V52.5071H54.026ZM54.6418 60.4561H53.6159V61.6877H54.6418V60.4561ZM59.2506 60.1082L58.7478 60.4637L58.7493 60.4658L59.2506 60.1082ZM59.2506 53.4709L58.7493 53.1132L58.7478 53.1154L59.2506 53.4709ZM63.7817 53.4709L63.2789 53.8263L63.7817 53.4709ZM63.0822 59.3543L62.518 59.1075L62.5166 59.1108L63.0822 59.3543ZM63.0822 54.2325L62.516 54.4746L62.518 54.4793L63.0822 54.2325ZM59.9423 54.2325L59.3775 53.9871L59.3767 53.989L59.9423 54.2325ZM59.9423 59.3543L59.3767 59.5978L59.3781 59.6011L59.9423 59.3543ZM61.5123 60.7126C60.8012 60.7126 60.2271 60.4167 59.7519 59.7506L58.7493 60.4658C59.4347 61.4266 60.3684 61.9442 61.5123 61.9442V60.7126ZM59.7534 59.7527C59.2761 59.0776 59.0037 58.111 59.0037 56.7895H57.7721C57.7721 58.266 58.0748 59.5118 58.7478 60.4637L59.7534 59.7527ZM59.0037 56.7895C59.0037 55.468 59.2761 54.5015 59.7534 53.8263L58.7478 53.1154C58.0748 54.0672 57.7721 55.313 57.7721 56.7895H59.0037ZM59.7519 53.8285C60.2271 53.1623 60.8012 52.8664 61.5123 52.8664V51.6349C60.3684 51.6349 59.4347 52.1525 58.7493 53.1132L59.7519 53.8285ZM61.5123 52.8664C62.2359 52.8664 62.8107 53.1641 63.2789 53.8263L64.2845 53.1154C63.6024 52.1506 62.6642 51.6349 61.5123 51.6349V52.8664ZM63.2789 53.8263C63.7562 54.5015 64.0286 55.468 64.0286 56.7895H65.2602C65.2602 55.313 64.9574 54.0672 64.2845 53.1154L63.2789 53.8263ZM64.0286 56.7895C64.0286 58.111 63.7562 59.0776 63.2789 59.7527L64.2845 60.4637C64.9574 59.5118 65.2602 58.266 65.2602 56.7895H64.0286ZM63.2789 59.7527C62.8107 60.4149 62.2359 60.7126 61.5123 60.7126V61.9442C62.6642 61.9442 63.6024 61.4284 64.2845 60.4637L63.2789 59.7527ZM61.5123 61.0892C61.9859 61.0892 62.4271 60.9654 62.8062 60.6951C63.1808 60.428 63.4543 60.0472 63.6478 59.5978L62.5166 59.1108C62.3889 59.4074 62.2401 59.5862 62.0913 59.6922C61.9472 59.795 61.764 59.8577 61.5123 59.8577V61.0892ZM63.6464 59.6011C64.0125 58.7642 64.1876 57.8228 64.1876 56.7895H62.9561C62.9561 57.6836 62.8048 58.4521 62.518 59.1075L63.6464 59.6011ZM64.1876 56.7895C64.1876 55.7609 64.0123 54.8222 63.6464 53.9857L62.518 54.4793C62.8049 55.1351 62.9561 55.9011 62.9561 56.7895H64.1876ZM63.6484 53.9904C63.4553 53.5388 63.1823 53.1558 62.8079 52.8871C62.4286 52.6148 61.9868 52.4898 61.5123 52.4898V53.7214C61.7631 53.7214 61.9457 53.7842 62.0897 53.8876C62.2386 53.9944 62.3879 54.1749 62.516 54.4746L63.6484 53.9904ZM61.5123 52.4898C61.0392 52.4898 60.5991 52.6153 60.2205 52.8871C59.8471 53.1551 59.5732 53.5368 59.3775 53.9871L60.5071 54.4779C60.6379 54.1769 60.7888 53.9952 60.9387 53.8876C61.0835 53.7836 61.2651 53.7214 61.5123 53.7214V52.4898ZM59.3767 53.989C59.0169 54.8246 58.8447 55.7621 58.8447 56.7895H60.0762C60.0762 55.8998 60.2252 55.1327 60.5079 54.476L59.3767 53.989ZM58.8447 56.7895C58.8447 57.8216 59.0168 58.7618 59.3767 59.5978L60.5079 59.1108C60.2253 58.4545 60.0762 57.6849 60.0762 56.7895H58.8447ZM59.3781 59.6011C59.5742 60.0493 59.8486 60.4288 60.2222 60.6951C60.6006 60.9648 61.0401 61.0892 61.5123 61.0892V59.8577C61.2642 59.8577 61.082 59.7955 60.9371 59.6922C60.7873 59.5855 60.6368 59.4054 60.5065 59.1075L59.3781 59.6011ZM68.6936 61.0719H68.0778V61.6877H68.6936V61.0719ZM68.6936 53.5719H69.3094V52.6631L68.4654 53L68.6936 53.5719ZM66.9604 54.2636H66.3447V55.1724L67.1887 54.8355L66.9604 54.2636ZM66.9604 53.3076L66.7022 52.7486L66.3447 52.9138V53.3076H66.9604ZM68.6936 52.5071V51.8913H68.5583L68.4354 51.9481L68.6936 52.5071ZM69.7195 52.5071H70.3353V51.8913H69.7195V52.5071ZM69.7195 61.0719V61.6877H70.3353V61.0719H69.7195ZM69.3094 61.0719V53.5719H68.0778V61.0719H69.3094ZM68.4654 53L66.7322 53.6917L67.1887 54.8355L68.9219 54.1438L68.4654 53ZM67.5762 54.2636V53.3076H66.3447V54.2636H67.5762ZM67.2187 53.8667L68.9518 53.0662L68.4354 51.9481L66.7022 52.7486L67.2187 53.8667ZM68.6936 53.1229H69.7195V51.8913H68.6936V53.1229ZM69.1037 52.5071V61.0719H70.3353V52.5071H69.1037ZM69.7195 60.4561H68.6936V61.6877H69.7195V60.4561ZM46.077 77.0719H45.4612V77.6877H46.077V77.0719ZM46.077 69.5719H46.6928V68.6631L45.8487 69L46.077 69.5719ZM44.3438 70.2636H43.7281V71.1724L44.5721 70.8355L44.3438 70.2636ZM44.3438 69.3076L44.0856 68.7486L43.7281 68.9138V69.3076H44.3438ZM46.077 68.5071V67.8913H45.9417L45.8188 67.9481L46.077 68.5071ZM47.1029 68.5071H47.7187V67.8913H47.1029V68.5071ZM47.1029 77.0719V77.6877H47.7187V77.0719H47.1029ZM46.6928 77.0719V69.5719H45.4612V77.0719H46.6928ZM45.8487 69L44.1156 69.6917L44.5721 70.8355L46.3053 70.1438L45.8487 69ZM44.9596 70.2636V69.3076H43.7281V70.2636H44.9596ZM44.602 69.8667L46.3352 69.0662L45.8188 67.9481L44.0856 68.7486L44.602 69.8667ZM46.077 69.1229H47.1029V67.8913H46.077V69.1229ZM46.4871 68.5071V77.0719H47.7187V68.5071H46.4871ZM47.1029 76.4561H46.077V77.6877H47.1029V76.4561ZM53.6159 77.0719H53.0001V77.6877H53.6159V77.0719ZM53.6159 69.5719H54.2317V68.6631L53.3876 69L53.6159 69.5719ZM51.8827 70.2636H51.2669V71.1724L52.111 70.8355L51.8827 70.2636ZM51.8827 69.3076L51.6245 68.7486L51.2669 68.9138V69.3076H51.8827ZM53.6159 68.5071V67.8913H53.4805L53.3577 67.9481L53.6159 68.5071ZM54.6418 68.5071H55.2576V67.8913H54.6418V68.5071ZM54.6418 77.0719V77.6877H55.2576V77.0719H54.6418ZM54.2317 77.0719V69.5719H53.0001V77.0719H54.2317ZM53.3876 69L51.6545 69.6917L52.111 70.8355L53.8441 70.1438L53.3876 69ZM52.4985 70.2636V69.3076H51.2669V70.2636H52.4985ZM52.1409 69.8667L53.8741 69.0662L53.3577 67.9481L51.6245 68.7486L52.1409 69.8667ZM53.6159 69.1229H54.6418V67.8913H53.6159V69.1229ZM54.026 68.5071V77.0719H55.2576V68.5071H54.026ZM54.6418 76.4561H53.6159V77.6877H54.6418V76.4561ZM61.1547 77.0719H60.539V77.6877H61.1547V77.0719ZM61.1547 69.5719H61.7705V68.6631L60.9265 69L61.1547 69.5719ZM59.4216 70.2636H58.8058V71.1724L59.6498 70.8355L59.4216 70.2636ZM59.4216 69.3076L59.1634 68.7486L58.8058 68.9138V69.3076H59.4216ZM61.1547 68.5071V67.8913H61.0194L60.8965 67.9481L61.1547 68.5071ZM62.1807 68.5071H62.7964V67.8913H62.1807V68.5071ZM62.1807 77.0719V77.6877H62.7964V77.0719H62.1807ZM61.7705 77.0719V69.5719H60.539V77.0719H61.7705ZM60.9265 69L59.1933 69.6917L59.6498 70.8355L61.383 70.1438L60.9265 69ZM60.0374 70.2636V69.3076H58.8058V70.2636H60.0374ZM59.6798 69.8667L61.413 69.0662L60.8965 67.9481L59.1634 68.7486L59.6798 69.8667ZM61.1547 69.1229H62.1807V67.8913H61.1547V69.1229ZM61.5649 68.5071V77.0719H62.7964V68.5071H61.5649ZM62.1807 76.4561H61.1547V77.6877H62.1807V76.4561ZM68.6936 77.0719H68.0778V77.6877H68.6936V77.0719ZM68.6936 69.5719H69.3094V68.6631L68.4654 69L68.6936 69.5719ZM66.9604 70.2636H66.3447V71.1724L67.1887 70.8355L66.9604 70.2636ZM66.9604 69.3076L66.7022 68.7486L66.3447 68.9138V69.3076H66.9604ZM68.6936 68.5071V67.8913H68.5583L68.4354 67.9481L68.6936 68.5071ZM69.7195 68.5071H70.3353V67.8913H69.7195V68.5071ZM69.7195 77.0719V77.6877H70.3353V77.0719H69.7195ZM69.3094 77.0719V69.5719H68.0778V77.0719H69.3094ZM68.4654 69L66.7322 69.6917L67.1887 70.8355L68.9219 70.1438L68.4654 69ZM67.5762 70.2636V69.3076H66.3447V70.2636H67.5762ZM67.2187 69.8667L68.9518 69.0662L68.4354 67.9481L66.7022 68.7486L67.2187 69.8667ZM68.6936 69.1229H69.7195V67.8913H68.6936V69.1229ZM69.1037 68.5071V77.0719H70.3353V68.5071H69.1037ZM69.7195 76.4561H68.6936V77.6877H69.7195V76.4561Z" fill="#333333"/>
<path d="M144.761 81.1937C143.597 81.1937 142.903 80.5894 142.679 79.3806L134.017 36.2693C133.972 36.0455 133.95 35.7992 133.95 35.5306C133.95 35.1725 134.084 34.8591 134.353 34.5905C134.621 34.3219 134.935 34.1876 135.293 34.1876H138.785C139.725 34.1876 140.262 34.5681 140.396 35.3292L147.246 69.9794L154.498 46.2077C154.901 45.1333 155.617 44.5961 156.647 44.5961H159.132C159.714 44.5961 160.161 44.7528 160.475 45.0662C160.833 45.3795 161.079 45.7601 161.213 46.2077L168.533 69.9794L175.315 35.3292C175.449 34.5681 176.009 34.1876 176.994 34.1876H180.486C180.844 34.1876 181.157 34.3219 181.426 34.5905C181.695 34.8591 181.829 35.1725 181.829 35.5306L181.762 36.2693L173.099 79.3806C172.831 80.5894 172.137 81.1937 171.017 81.1937H168.399C167.235 81.1937 166.496 80.6341 166.183 79.5149L157.856 53.9302L149.596 79.5149C149.238 80.6341 148.499 81.1937 147.38 81.1937H144.761ZM202.599 81.8652C197.674 81.8652 193.847 80.4774 191.116 77.7018C188.43 74.9262 186.997 71.2329 186.818 66.6218L186.751 63.7343L186.818 60.8468C186.997 56.2805 188.452 52.6095 191.183 49.8339C193.914 47.0136 197.719 45.6034 202.599 45.6034C207.478 45.6034 211.284 47.0136 214.014 49.8339C216.745 52.6095 218.2 56.2805 218.379 60.8468C218.424 61.3392 218.446 62.3017 218.446 63.7343C218.446 65.1669 218.424 66.1294 218.379 66.6218C218.2 71.2329 216.745 74.9262 214.014 77.7018C211.328 80.4774 207.523 81.8652 202.599 81.8652ZM202.599 76.6946C205.419 76.6946 207.635 75.7992 209.247 74.0085C210.903 72.2178 211.798 69.6436 211.933 66.2861C211.978 65.8384 212 64.9878 212 63.7343C212 62.4808 211.978 61.6302 211.933 61.1825C211.798 57.825 210.903 55.2508 209.247 53.4601C207.635 51.6694 205.419 50.774 202.599 50.774C199.778 50.774 197.54 51.6694 195.884 53.4601C194.227 55.2508 193.354 57.825 193.265 61.1825L193.197 63.7343L193.265 66.2861C193.354 69.6436 194.227 72.2178 195.884 74.0085C197.54 75.7992 199.778 76.6946 202.599 76.6946ZM242.837 81.8652C239.121 81.8652 235.898 81.2833 233.167 80.1193C230.481 78.9553 228.422 77.4332 226.989 75.553C225.557 73.628 224.796 71.5687 224.706 69.375C224.706 69.0169 224.841 68.7035 225.109 68.4349C225.423 68.1215 225.781 67.9649 226.184 67.9649H229.608C230.459 67.9649 231.041 68.4125 231.354 69.3079C231.757 71.1881 232.899 72.7998 234.779 74.1428C236.704 75.4858 239.39 76.1574 242.837 76.1574C246.553 76.1574 249.351 75.5082 251.231 74.21C253.111 72.8669 254.051 71.0091 254.051 68.6364C254.051 67.1143 253.581 65.8832 252.641 64.943C251.746 64.0029 250.403 63.1747 248.612 62.4584C246.821 61.7421 244.135 60.8468 240.554 59.7724C237.062 58.7875 234.287 57.7354 232.227 56.6162C230.168 55.497 228.623 54.1092 227.594 52.4528C226.564 50.7964 226.049 48.7147 226.049 46.2077C226.049 43.7903 226.698 41.619 227.997 39.694C229.34 37.769 231.242 36.2693 233.705 35.1949C236.167 34.0757 239.099 33.5161 242.501 33.5161C245.993 33.5161 248.993 34.1428 251.5 35.3963C254.007 36.6051 255.909 38.1495 257.208 40.0298C258.506 41.91 259.2 43.7903 259.289 45.6705C259.289 46.0287 259.155 46.342 258.886 46.6106C258.663 46.8793 258.327 47.0136 257.879 47.0136H254.32C253.38 47.0136 252.798 46.5883 252.574 45.7377C252.306 43.8574 251.254 42.3129 249.418 41.1042C247.583 39.8507 245.277 39.224 242.501 39.224C239.457 39.224 237.062 39.806 235.316 40.9699C233.57 42.1339 232.697 43.8574 232.697 46.1406C232.697 47.6627 233.1 48.9162 233.906 49.9011C234.757 50.886 236.032 51.7589 237.734 52.52C239.435 53.2363 241.919 54.0645 245.187 55.0046C248.993 56.0343 251.992 57.1087 254.186 58.2279C256.379 59.3023 258.013 60.6677 259.088 62.3241C260.162 63.9358 260.699 65.9951 260.699 68.5021C260.699 72.6655 259.088 75.9335 255.865 78.3062C252.641 80.6789 248.299 81.8652 242.837 81.8652ZM284.61 81.8652C280.894 81.8652 277.671 81.2833 274.94 80.1193C272.254 78.9553 270.195 77.4332 268.762 75.553C267.33 73.628 266.569 71.5687 266.479 69.375C266.479 69.0169 266.614 68.7035 266.882 68.4349C267.196 68.1215 267.554 67.9649 267.957 67.9649H271.381C272.232 67.9649 272.814 68.4125 273.127 69.3079C273.53 71.1881 274.672 72.7998 276.552 74.1428C278.477 75.4858 281.163 76.1574 284.61 76.1574C288.326 76.1574 291.124 75.5082 293.004 74.21C294.884 72.8669 295.824 71.0091 295.824 68.6364C295.824 67.1143 295.354 65.8832 294.414 64.943C293.519 64.0029 292.176 63.1747 290.385 62.4584C288.595 61.7421 285.908 60.8468 282.327 59.7724C278.835 58.7875 276.06 57.7354 274 56.6162C271.941 55.497 270.396 54.1092 269.367 52.4528C268.337 50.7964 267.822 48.7147 267.822 46.2077C267.822 43.7903 268.471 41.619 269.77 39.694C271.113 37.769 273.015 36.2693 275.478 35.1949C277.94 34.0757 280.872 33.5161 284.274 33.5161C287.766 33.5161 290.766 34.1428 293.273 35.3963C295.78 36.6051 297.682 38.1495 298.981 40.0298C300.279 41.91 300.973 43.7903 301.062 45.6705C301.062 46.0287 300.928 46.342 300.659 46.6106C300.436 46.8793 300.1 47.0136 299.652 47.0136H296.093C295.153 47.0136 294.571 46.5883 294.347 45.7377C294.079 43.8574 293.027 42.3129 291.191 41.1042C289.356 39.8507 287.05 39.224 284.274 39.224C281.23 39.224 278.835 39.806 277.089 40.9699C275.343 42.1339 274.47 43.8574 274.47 46.1406C274.47 47.6627 274.873 48.9162 275.679 49.9011C276.53 50.886 277.805 51.7589 279.507 52.52C281.208 53.2363 283.692 54.0645 286.96 55.0046C290.766 56.0343 293.765 57.1087 295.959 58.2279C298.152 59.3023 299.786 60.6677 300.861 62.3241C301.935 63.9358 302.473 65.9951 302.473 68.5021C302.473 72.6655 300.861 75.9335 297.638 78.3062C294.414 80.6789 290.072 81.8652 284.61 81.8652ZM326.383 81.8652C322.667 81.8652 319.444 81.2833 316.713 80.1193C314.027 78.9553 311.968 77.4332 310.535 75.553C309.103 73.628 308.342 71.5687 308.252 69.375C308.252 69.0169 308.387 68.7035 308.655 68.4349C308.969 68.1215 309.327 67.9649 309.73 67.9649H313.154C314.005 67.9649 314.587 68.4125 314.9 69.3079C315.303 71.1881 316.445 72.7998 318.325 74.1428C320.25 75.4858 322.936 76.1574 326.383 76.1574C330.099 76.1574 332.897 75.5082 334.777 74.21C336.657 72.8669 337.598 71.0091 337.598 68.6364C337.598 67.1143 337.127 65.8832 336.187 64.943C335.292 64.0029 333.949 63.1747 332.158 62.4584C330.368 61.7421 327.681 60.8468 324.1 59.7724C320.608 58.7875 317.833 57.7354 315.773 56.6162C313.714 55.497 312.169 54.1092 311.14 52.4528C310.11 50.7964 309.595 48.7147 309.595 46.2077C309.595 43.7903 310.244 41.619 311.543 39.694C312.886 37.769 314.788 36.2693 317.251 35.1949C319.713 34.0757 322.645 33.5161 326.047 33.5161C329.539 33.5161 332.539 34.1428 335.046 35.3963C337.553 36.6051 339.455 38.1495 340.754 40.0298C342.052 41.91 342.746 43.7903 342.835 45.6705C342.835 46.0287 342.701 46.342 342.432 46.6106C342.209 46.8793 341.873 47.0136 341.425 47.0136H337.866C336.926 47.0136 336.344 46.5883 336.12 45.7377C335.852 43.8574 334.8 42.3129 332.964 41.1042C331.129 39.8507 328.823 39.224 326.047 39.224C323.003 39.224 320.608 39.806 318.862 40.9699C317.116 42.1339 316.243 43.8574 316.243 46.1406C316.243 47.6627 316.646 48.9162 317.452 49.9011C318.303 50.886 319.579 51.7589 321.28 52.52C322.981 53.2363 325.465 54.0645 328.734 55.0046C332.539 56.0343 335.538 57.1087 337.732 58.2279C339.925 59.3023 341.559 60.6677 342.634 62.3241C343.708 63.9358 344.246 65.9951 344.246 68.5021C344.246 72.6655 342.634 75.9335 339.411 78.3062C336.187 80.6789 331.845 81.8652 326.383 81.8652Z" fill="#333333"/>
<path d="M142.679 79.3806L144.631 79.0192L144.628 79.0044L144.625 78.9896L142.679 79.3806ZM134.017 36.2693L132.071 36.6585L132.071 36.6603L134.017 36.2693ZM134.353 34.5905L135.756 35.994L135.756 35.994L134.353 34.5905ZM140.396 35.3292L138.442 35.6741L138.445 35.6941L138.449 35.7141L140.396 35.3292ZM147.246 69.9794L145.299 70.3643L149.144 70.5586L147.246 69.9794ZM154.498 46.2077L152.64 45.5108L152.618 45.5691L152.6 45.6286L154.498 46.2077ZM160.475 45.0662L159.071 46.4696L159.118 46.5163L159.168 46.5599L160.475 45.0662ZM161.213 46.2077L159.312 46.7781L159.314 46.7849L159.316 46.7918L161.213 46.2077ZM168.533 69.9794L166.636 70.5635L170.481 70.3607L168.533 69.9794ZM175.315 35.3292L177.263 35.7104L177.267 35.6923L177.27 35.6741L175.315 35.3292ZM181.426 34.5905L180.023 35.994L180.023 35.994L181.426 34.5905ZM181.829 35.5306L183.806 35.7103L183.814 35.6207V35.5306H181.829ZM181.762 36.2693L183.708 36.6603L183.729 36.5555L183.738 36.449L181.762 36.2693ZM173.099 79.3806L175.037 79.8112L175.041 79.7915L175.045 79.7716L173.099 79.3806ZM166.183 79.5149L168.094 78.9798L168.083 78.94L168.07 78.9007L166.183 79.5149ZM157.856 53.9302L159.743 53.3159L157.848 47.4935L155.967 53.3204L157.856 53.9302ZM149.596 79.5149L147.707 78.9052L147.706 78.91L149.596 79.5149ZM144.761 79.209C144.64 79.209 144.591 79.193 144.59 79.193C144.59 79.193 144.593 79.1939 144.598 79.196C144.603 79.1982 144.61 79.2014 144.618 79.206C144.635 79.2156 144.654 79.2283 144.671 79.2438C144.71 79.2775 144.718 79.2996 144.706 79.2775C144.693 79.2507 144.66 79.173 144.631 79.0192L140.728 79.742C140.894 80.6392 141.281 81.555 142.064 82.2371C142.86 82.9305 143.831 83.1785 144.761 83.1785V79.209ZM144.625 78.9896L135.963 35.8783L132.071 36.6603L140.734 79.7716L144.625 78.9896ZM135.963 35.8801C135.948 35.8045 135.935 35.6908 135.935 35.5306H131.965C131.965 35.9077 131.996 36.2864 132.071 36.6585L135.963 35.8801ZM135.935 35.5306C135.935 35.6065 135.919 35.7061 135.875 35.8088C135.832 35.9093 135.78 35.9701 135.756 35.994L132.949 33.1871C132.333 33.8028 131.965 34.6117 131.965 35.5306H135.935ZM135.756 35.994C135.732 36.0178 135.671 36.0696 135.571 36.1126C135.468 36.1567 135.369 36.1724 135.293 36.1724V32.2028C134.374 32.2028 133.565 32.5713 132.949 33.1871L135.756 35.994ZM135.293 36.1724H138.785V32.2028H135.293V36.1724ZM138.785 36.1724C139.013 36.1724 138.928 36.2219 138.745 36.0926C138.649 36.0245 138.567 35.9339 138.509 35.8361C138.455 35.7436 138.443 35.6788 138.442 35.6741L142.351 34.9843C142.21 34.1854 141.809 33.3979 141.04 32.8534C140.32 32.3435 139.496 32.2028 138.785 32.2028V36.1724ZM138.449 35.7141L145.299 70.3643L149.193 69.5945L142.343 34.9443L138.449 35.7141ZM149.144 70.5586L156.397 46.7869L152.6 45.6286L145.347 69.4002L149.144 70.5586ZM156.357 46.9046C156.462 46.6232 156.548 46.5723 156.528 46.5868C156.521 46.5926 156.513 46.5951 156.517 46.5938C156.524 46.5917 156.563 46.5809 156.647 46.5809V42.6113C155.77 42.6113 154.898 42.8474 154.147 43.4112C153.411 43.9629 152.937 44.7178 152.64 45.5108L156.357 46.9046ZM156.647 46.5809H159.132V42.6113H156.647V46.5809ZM159.132 46.5809C159.248 46.5809 159.277 46.597 159.248 46.587C159.233 46.5816 159.206 46.5702 159.171 46.5492C159.137 46.5279 159.103 46.501 159.071 46.4696L161.878 43.6627C161.087 42.8714 160.069 42.6113 159.132 42.6113V46.5809ZM159.168 46.5599C159.25 46.6321 159.287 46.6947 159.312 46.7781L163.114 45.6374C162.871 44.8254 162.415 44.1269 161.782 43.5725L159.168 46.5599ZM159.316 46.7918L166.636 70.5635L170.43 69.3953L163.11 45.6237L159.316 46.7918ZM170.481 70.3607L177.263 35.7104L173.367 34.9479L166.585 69.5981L170.481 70.3607ZM177.27 35.6741C177.267 35.689 177.251 35.7624 177.192 35.8607C177.129 35.9638 177.043 36.0519 176.952 36.1143C176.784 36.2283 176.727 36.1724 176.994 36.1724V32.2028C176.276 32.2028 175.447 32.3371 174.72 32.8317C173.932 33.3669 173.506 34.1579 173.361 34.9843L177.27 35.6741ZM176.994 36.1724H180.486V32.2028H176.994V36.1724ZM180.486 36.1724C180.41 36.1724 180.31 36.1567 180.208 36.1126C180.107 36.0696 180.046 36.0178 180.023 35.994L182.829 33.1871C182.214 32.5713 181.405 32.2028 180.486 32.2028V36.1724ZM180.023 35.994C179.999 35.9701 179.947 35.9093 179.904 35.8088C179.86 35.7061 179.844 35.6065 179.844 35.5306H183.814C183.814 34.6117 183.445 33.8028 182.829 33.1871L180.023 35.994ZM179.852 35.3509L179.785 36.0896L183.738 36.449L183.806 35.7103L179.852 35.3509ZM179.816 35.8783L171.153 78.9896L175.045 79.7716L183.708 36.6603L179.816 35.8783ZM171.162 78.9501C171.088 79.2818 171.007 79.3022 171.074 79.2438C171.105 79.2161 171.137 79.2016 171.149 79.1975C171.156 79.1952 171.12 79.209 171.017 79.209V83.1785C171.948 83.1785 172.899 82.9185 173.681 82.2371C174.442 81.5744 174.842 80.6882 175.037 79.8112L171.162 78.9501ZM171.017 79.209H168.399V83.1785H171.017V79.209ZM168.399 79.209C168.265 79.209 168.193 79.1928 168.165 79.1847C168.142 79.1778 168.15 79.1769 168.17 79.192C168.19 79.2071 168.192 79.2156 168.179 79.1955C168.164 79.1717 168.13 79.1074 168.094 78.9798L164.271 80.0501C164.515 80.9194 164.979 81.7542 165.773 82.3561C166.567 82.9578 167.496 83.1785 168.399 83.1785V79.209ZM168.07 78.9007L159.743 53.3159L155.968 54.5444L164.295 80.1292L168.07 78.9007ZM155.967 53.3204L147.707 78.9052L151.485 80.1247L159.745 54.5399L155.967 53.3204ZM147.706 78.91C147.618 79.1851 147.541 79.2178 147.575 79.192C147.587 79.1828 147.593 79.1832 147.576 79.1884C147.555 79.1946 147.495 79.209 147.38 79.209V83.1785C148.28 83.1785 149.191 82.9479 149.972 82.3561C150.745 81.7706 151.216 80.964 151.486 80.1198L147.706 78.91ZM147.38 79.209H144.761V83.1785H147.38V79.209ZM191.116 77.7018L189.689 79.0821L189.695 79.088L189.701 79.0938L191.116 77.7018ZM186.818 66.6218L184.834 66.668L184.834 66.6834L184.835 66.6988L186.818 66.6218ZM186.751 63.7343L184.767 63.6882L184.766 63.7343L184.767 63.7805L186.751 63.7343ZM186.818 60.8468L184.835 60.769L184.834 60.7848L184.834 60.8006L186.818 60.8468ZM191.183 49.8339L192.598 51.2259L192.603 51.2203L192.609 51.2146L191.183 49.8339ZM214.014 49.8339L212.589 51.2146L212.594 51.2203L212.6 51.2259L214.014 49.8339ZM218.379 60.8468L216.396 60.9246L216.398 60.9756L216.403 61.0265L218.379 60.8468ZM218.379 66.6218L216.403 66.4421L216.398 66.4934L216.396 66.5448L218.379 66.6218ZM214.014 77.7018L212.6 76.3099L212.594 76.3157L212.588 76.3216L214.014 77.7018ZM209.247 74.0085L207.79 72.6608L207.78 72.6707L207.771 72.6808L209.247 74.0085ZM211.933 66.2861L209.958 66.0886L209.952 66.1475L209.95 66.2067L211.933 66.2861ZM211.933 61.1825L209.95 61.2619L209.952 61.3211L209.958 61.38L211.933 61.1825ZM209.247 53.4601L207.771 54.7879L207.78 54.7979L207.79 54.8079L209.247 53.4601ZM193.265 61.1825L191.281 61.1296L191.281 61.1303L193.265 61.1825ZM193.197 63.7343L191.213 63.6821L191.212 63.7343L191.213 63.7865L193.197 63.7343ZM193.265 66.2861L191.281 66.3383L191.281 66.339L193.265 66.2861ZM195.884 74.0085L197.341 72.6608L197.341 72.6608L195.884 74.0085ZM202.599 79.8805C198.058 79.8805 194.796 78.612 192.531 76.3099L189.701 79.0938C192.898 82.3428 197.291 83.85 202.599 83.85V79.8805ZM192.542 76.3216C190.259 73.963 188.965 70.7679 188.801 66.5448L184.835 66.6988C185.029 71.6979 186.6 75.8895 189.689 79.0821L192.542 76.3216ZM188.802 66.5757L188.735 63.6882L184.767 63.7805L184.834 66.668L188.802 66.5757ZM188.735 63.7805L188.802 60.8929L184.834 60.8006L184.767 63.6882L188.735 63.7805ZM188.801 60.9246C188.965 56.7608 190.272 53.5895 192.598 51.2259L189.768 48.4419C186.632 51.6296 185.03 55.8002 184.835 60.769L188.801 60.9246ZM192.609 51.2146C194.879 48.8699 198.118 47.5881 202.599 47.5881V43.6186C197.32 43.6186 192.948 45.1572 189.757 48.4533L192.609 51.2146ZM202.599 47.5881C207.08 47.5881 210.318 48.8699 212.589 51.2146L215.44 48.4533C212.249 45.1572 207.877 43.6186 202.599 43.6186V47.5881ZM212.6 51.2259C214.925 53.5895 216.233 56.7608 216.396 60.9246L220.363 60.769C220.168 55.8002 218.565 51.6296 215.429 48.4419L212.6 51.2259ZM216.403 61.0265C216.438 61.4151 216.462 62.289 216.462 63.7343H220.431C220.431 62.3145 220.41 61.2634 220.356 60.6671L216.403 61.0265ZM216.462 63.7343C216.462 65.1796 216.438 66.0535 216.403 66.4421L220.356 66.8015C220.41 66.2053 220.431 65.1541 220.431 63.7343H216.462ZM216.396 66.5448C216.232 70.7589 214.921 73.95 212.6 76.3099L215.429 79.0938C218.569 75.9025 220.168 71.7069 220.363 66.6988L216.396 66.5448ZM212.588 76.3216C210.372 78.6115 207.141 79.8805 202.599 79.8805V83.85C207.905 83.85 212.285 82.3434 215.441 79.0821L212.588 76.3216ZM202.599 78.6793C205.876 78.6793 208.669 77.6176 210.722 75.3362L207.771 72.6808C206.601 73.9809 204.962 74.7098 202.599 74.7098V78.6793ZM210.704 75.3562C212.784 73.1074 213.77 70.0171 213.916 66.3654L209.95 66.2067C209.827 69.2702 209.022 71.3282 207.79 72.6608L210.704 75.3562ZM213.908 66.4836C213.964 65.9229 213.985 64.9767 213.985 63.7343H210.015C210.015 64.9989 209.991 65.7539 209.958 66.0886L213.908 66.4836ZM213.985 63.7343C213.985 62.4919 213.964 61.5457 213.908 60.9851L209.958 61.38C209.991 61.7147 210.015 62.4697 210.015 63.7343H213.985ZM213.916 61.1032C213.77 57.4515 212.784 54.3612 210.704 52.1124L207.79 54.8079C209.022 56.1404 209.827 58.1985 209.95 61.2619L213.916 61.1032ZM210.722 52.1324C208.669 49.851 205.876 48.7893 202.599 48.7893V52.7588C204.962 52.7588 206.601 53.4878 207.771 54.7879L210.722 52.1324ZM202.599 48.7893C199.32 48.7893 196.518 49.8508 194.426 52.1124L197.341 54.8079C198.561 53.488 200.237 52.7588 202.599 52.7588V48.7893ZM194.426 52.1124C192.338 54.3703 191.378 57.4725 191.281 61.1296L195.249 61.2355C195.33 58.1774 196.116 56.1313 197.341 54.8079L194.426 52.1124ZM191.281 61.1303L191.213 63.6821L195.182 63.7865L195.249 61.2348L191.281 61.1303ZM191.213 63.7865L191.281 66.3383L195.249 66.2339L195.182 63.6821L191.213 63.7865ZM191.281 66.339C191.378 69.9961 192.338 73.0983 194.426 75.3562L197.341 72.6608C196.116 71.3373 195.33 69.2912 195.249 66.2332L191.281 66.339ZM194.426 75.3562C196.518 77.6178 199.32 78.6793 202.599 78.6793V74.7098C200.237 74.7098 198.561 73.9807 197.341 72.6608L194.426 75.3562ZM233.167 80.1193L232.378 81.9405L232.389 81.9451L233.167 80.1193ZM226.989 75.553L225.397 76.7379L225.404 76.7469L225.411 76.7558L226.989 75.553ZM224.706 69.375H222.721V69.4155L222.723 69.456L224.706 69.375ZM225.109 68.4349L223.706 67.0315L223.706 67.0315L225.109 68.4349ZM231.354 69.3079L233.295 68.892L233.269 68.77L233.228 68.6522L231.354 69.3079ZM234.779 74.1428L233.625 75.7579L233.634 75.7643L233.643 75.7706L234.779 74.1428ZM251.231 74.21L252.359 75.8432L252.372 75.8342L252.385 75.825L251.231 74.21ZM252.641 64.943L251.204 66.3118L251.221 66.3294L251.238 66.3465L252.641 64.943ZM248.612 62.4584L249.349 60.6156L249.349 60.6156L248.612 62.4584ZM240.554 59.7724L241.124 57.8713L241.109 57.8666L241.093 57.8621L240.554 59.7724ZM232.227 56.6162L233.175 54.8724L233.175 54.8724L232.227 56.6162ZM227.594 52.4528L225.908 53.5007L225.908 53.5007L227.594 52.4528ZM227.997 39.694L226.369 38.5584L226.36 38.5713L226.351 38.5843L227.997 39.694ZM233.705 35.1949L234.498 37.014L234.512 37.008L234.526 37.0017L233.705 35.1949ZM251.5 35.3963L250.612 37.1716L250.625 37.1779L250.638 37.1842L251.5 35.3963ZM257.208 40.0298L258.841 38.9021L258.841 38.9021L257.208 40.0298ZM259.289 45.6705H261.274V45.6233L261.272 45.5761L259.289 45.6705ZM258.886 46.6106L257.483 45.2072L257.419 45.2709L257.362 45.34L258.886 46.6106ZM252.574 45.7377L250.609 46.0184L250.626 46.1319L250.655 46.2428L252.574 45.7377ZM249.418 41.1042L248.299 42.7432L248.312 42.7527L248.326 42.7618L249.418 41.1042ZM235.316 40.9699L234.215 39.3185L234.215 39.3185L235.316 40.9699ZM233.906 49.9011L232.37 51.1579L232.387 51.1784L232.404 51.1984L233.906 49.9011ZM237.734 52.52L236.923 54.3317L236.943 54.3407L236.963 54.3492L237.734 52.52ZM245.187 55.0046L244.639 56.912L244.654 56.9164L244.669 56.9205L245.187 55.0046ZM254.186 58.2279L253.284 59.9958L253.298 60.0032L253.313 60.0103L254.186 58.2279ZM259.088 62.3241L257.423 63.4042L257.429 63.4147L257.436 63.4251L259.088 62.3241ZM255.865 78.3062L257.041 79.9046L257.041 79.9046L255.865 78.3062ZM242.837 79.8805C239.324 79.8805 236.377 79.3297 233.946 78.2935L232.389 81.9451C235.42 83.2368 238.919 83.85 242.837 83.85V79.8805ZM233.956 78.2982C231.509 77.2375 229.751 75.9028 228.568 74.3501L225.411 76.7558C227.093 78.9636 229.454 80.6732 232.378 81.9404L233.956 78.2982ZM228.582 74.3681C227.364 72.7322 226.761 71.0517 226.689 69.2941L222.723 69.456C222.83 72.0857 223.749 74.5238 225.397 76.7379L228.582 74.3681ZM226.691 69.375C226.691 69.451 226.675 69.5505 226.631 69.6532C226.588 69.7537 226.536 69.8145 226.513 69.8384L223.706 67.0315C223.09 67.6472 222.721 68.4561 222.721 69.375H226.691ZM226.513 69.8384C226.517 69.8335 226.484 69.8675 226.408 69.9007C226.329 69.9355 226.247 69.9496 226.184 69.9496V65.9801C225.199 65.9801 224.35 66.3868 223.706 67.0315L226.513 69.8384ZM226.184 69.9496H229.608V65.9801H226.184V69.9496ZM229.608 69.9496C229.647 69.9496 229.64 69.9545 229.604 69.9432C229.586 69.9377 229.564 69.9291 229.54 69.9166C229.516 69.9041 229.493 69.8895 229.473 69.8738C229.43 69.841 229.414 69.816 229.417 69.8213C229.423 69.8289 229.448 69.8702 229.481 69.9636L233.228 68.6522C232.98 67.9458 232.567 67.2459 231.893 66.7274C231.202 66.1957 230.399 65.9801 229.608 65.9801V69.9496ZM229.414 69.7238C229.94 72.1818 231.428 74.1884 233.625 75.7579L235.933 72.5277C234.369 71.4111 233.574 70.1945 233.295 68.892L229.414 69.7238ZM233.643 75.7706C236.024 77.4316 239.165 78.1421 242.837 78.1421V74.1726C239.615 74.1726 237.384 73.5401 235.915 72.515L233.643 75.7706ZM242.837 78.1421C246.726 78.1421 249.998 77.4732 252.359 75.8432L250.103 72.5767C248.704 73.5432 246.38 74.1726 242.837 74.1726V78.1421ZM252.385 75.825C254.803 74.0977 256.036 71.6296 256.036 68.6364H252.067C252.067 70.3885 251.42 71.6361 250.077 72.5949L252.385 75.825ZM256.036 68.6364C256.036 66.6707 255.412 64.9067 254.045 63.5396L251.238 66.3465C251.751 66.8597 252.067 67.5579 252.067 68.6364H256.036ZM254.079 63.5742C252.915 62.3523 251.287 61.3908 249.349 60.6156L247.875 64.3012C249.519 64.9586 250.577 65.6535 251.204 66.3118L254.079 63.5742ZM249.349 60.6156C247.474 59.8657 244.72 58.9501 241.124 57.8713L239.984 61.6734C243.551 62.7435 246.168 63.6186 247.875 64.3012L249.349 60.6156ZM241.093 57.8621C237.675 56.898 235.054 55.8938 233.175 54.8724L231.279 58.3601C233.519 59.5771 236.45 60.6769 240.015 61.6826L241.093 57.8621ZM233.175 54.8724C231.357 53.8843 230.094 52.7157 229.279 51.405L225.908 53.5007C227.153 55.5028 228.979 57.1098 231.279 58.3601L233.175 54.8724ZM229.279 51.405C228.494 50.1412 228.034 48.4486 228.034 46.2077H224.064C224.064 48.9809 224.634 51.4517 225.908 53.5007L229.279 51.405ZM228.034 46.2077C228.034 44.1685 228.574 42.3869 229.642 40.8038L226.351 38.5843C224.822 40.8511 224.064 43.4121 224.064 46.2077H228.034ZM229.624 40.8297C230.729 39.2465 232.322 37.9635 234.498 37.014L232.911 33.3758C230.162 34.5751 227.95 36.2915 226.369 38.5584L229.624 40.8297ZM234.526 37.0017C236.673 36.0259 239.312 35.5009 242.501 35.5009V31.5313C238.887 31.5313 235.661 32.1254 232.883 33.388L234.526 37.0017ZM242.501 35.5009C245.759 35.5009 248.44 36.0856 250.612 37.1716L252.387 33.6211C249.545 32.2001 246.227 31.5313 242.501 31.5313V35.5009ZM250.638 37.1842C252.902 38.2759 254.51 39.6161 255.574 41.1575L258.841 38.9021C257.309 36.683 255.111 34.9343 252.362 33.6085L250.638 37.1842ZM255.574 41.1575C256.707 42.7982 257.238 44.3272 257.307 45.7649L261.272 45.5761C261.161 43.2534 260.305 41.0219 258.841 38.9021L255.574 41.1575ZM257.305 45.6705C257.305 45.5946 257.32 45.4951 257.364 45.3923C257.407 45.2919 257.459 45.2311 257.483 45.2072L260.29 48.0141C260.906 47.3983 261.274 46.5895 261.274 45.6705H257.305ZM257.362 45.34C257.468 45.2123 257.602 45.1209 257.73 45.07C257.845 45.024 257.909 45.0288 257.879 45.0288V48.9983C258.738 48.9983 259.709 48.7235 260.411 47.8813L257.362 45.34ZM257.879 45.0288H254.32V48.9983H257.879V45.0288ZM254.32 45.0288C254.233 45.0288 254.203 45.0187 254.216 45.0223C254.233 45.027 254.285 45.0452 254.35 45.0921C254.415 45.14 254.461 45.1944 254.487 45.236C254.511 45.2737 254.506 45.2808 254.494 45.2326L250.655 46.2428C250.856 47.0086 251.273 47.76 252.007 48.2971C252.729 48.8242 253.557 48.9983 254.32 48.9983V45.0288ZM254.539 45.457C254.177 42.9231 252.738 40.9138 250.51 39.4466L248.326 42.7618C249.769 43.7121 250.434 44.7918 250.609 46.0184L254.539 45.457ZM250.537 39.4652C248.298 37.9361 245.577 37.2392 242.501 37.2392V41.2087C244.977 41.2087 246.867 41.7654 248.299 42.7432L250.537 39.4652ZM242.501 37.2392C239.233 37.2392 236.403 37.8597 234.215 39.3185L236.417 42.6213C237.721 41.7522 239.681 41.2087 242.501 41.2087V37.2392ZM234.215 39.3185C231.862 40.8873 230.713 43.263 230.713 46.1406H234.682C234.682 44.4519 235.279 43.3804 236.417 42.6213L234.215 39.3185ZM230.713 46.1406C230.713 48.0273 231.22 49.7522 232.37 51.1579L235.442 48.6442C234.981 48.0802 234.682 47.298 234.682 46.1406H230.713ZM232.404 51.1984C233.508 52.4772 235.063 53.4995 236.923 54.3317L238.544 50.7083C237.002 50.0183 236.005 49.2948 235.408 48.6038L232.404 51.1984ZM236.963 54.3492C238.773 55.1113 241.347 55.965 244.639 56.912L245.736 53.0972C242.492 52.1639 240.096 51.3612 238.504 50.6908L236.963 54.3492ZM244.669 56.9205C248.411 57.9329 251.263 58.9648 253.284 59.9958L255.088 56.4599C252.721 55.2526 249.575 54.1356 245.706 53.0887L244.669 56.9205ZM253.313 60.0103C255.26 60.964 256.585 62.1133 257.423 63.4042L260.753 61.244C259.442 59.2221 257.499 57.6406 255.059 56.4454L253.313 60.0103ZM257.436 63.4251C258.238 64.6271 258.715 66.2727 258.715 68.5021H262.684C262.684 65.7174 262.087 63.2444 260.739 61.2232L257.436 63.4251ZM258.715 68.5021C258.715 72.0643 257.38 74.7265 254.688 76.7078L257.041 79.9046C260.796 77.1405 262.684 73.2666 262.684 68.5021H258.715ZM254.688 76.7078C251.91 78.7524 248.027 79.8805 242.837 79.8805V83.85C248.571 83.85 253.372 82.6054 257.041 79.9046L254.688 76.7078ZM274.94 80.1193L274.151 81.9405L274.162 81.9451L274.94 80.1193ZM268.762 75.553L267.17 76.7379L267.177 76.7469L267.184 76.7558L268.762 75.553ZM266.479 69.375H264.494V69.4155L264.496 69.456L266.479 69.375ZM266.882 68.4349L265.479 67.0315L265.479 67.0315L266.882 68.4349ZM273.127 69.3079L275.068 68.892L275.042 68.77L275.001 68.6522L273.127 69.3079ZM276.552 74.1428L275.398 75.7579L275.407 75.7643L275.416 75.7706L276.552 74.1428ZM293.004 74.21L294.132 75.8432L294.145 75.8342L294.158 75.825L293.004 74.21ZM294.414 64.943L292.977 66.3118L292.994 66.3294L293.011 66.3465L294.414 64.943ZM290.385 62.4584L291.122 60.6156L291.122 60.6156L290.385 62.4584ZM282.327 59.7724L282.897 57.8713L282.882 57.8666L282.866 57.8621L282.327 59.7724ZM274 56.6162L274.948 54.8724L274.948 54.8724L274 56.6162ZM269.367 52.4528L267.681 53.5007L267.681 53.5007L269.367 52.4528ZM269.77 39.694L268.142 38.5584L268.133 38.5713L268.124 38.5843L269.77 39.694ZM275.478 35.1949L276.271 37.014L276.285 37.008L276.299 37.0017L275.478 35.1949ZM293.273 35.3963L292.385 37.1716L292.398 37.1779L292.411 37.1842L293.273 35.3963ZM298.981 40.0298L300.614 38.9021L300.614 38.9021L298.981 40.0298ZM301.062 45.6705H303.047V45.6233L303.045 45.5761L301.062 45.6705ZM300.659 46.6106L299.256 45.2072L299.192 45.2709L299.135 45.34L300.659 46.6106ZM294.347 45.7377L292.382 46.0184L292.399 46.1319L292.428 46.2428L294.347 45.7377ZM291.191 41.1042L290.072 42.7432L290.085 42.7527L290.099 42.7618L291.191 41.1042ZM277.089 40.9699L275.988 39.3185L275.988 39.3185L277.089 40.9699ZM275.679 49.9011L274.143 51.1579L274.16 51.1784L274.177 51.1984L275.679 49.9011ZM279.507 52.52L278.696 54.3317L278.716 54.3407L278.736 54.3492L279.507 52.52ZM286.96 55.0046L286.412 56.912L286.427 56.9164L286.442 56.9205L286.96 55.0046ZM295.959 58.2279L295.057 59.9958L295.071 60.0032L295.086 60.0103L295.959 58.2279ZM300.861 62.3241L299.196 63.4042L299.203 63.4147L299.209 63.4251L300.861 62.3241ZM297.638 78.3062L298.814 79.9046L298.814 79.9046L297.638 78.3062ZM284.61 79.8805C281.097 79.8805 278.15 79.3297 275.719 78.2935L274.162 81.9451C277.193 83.2368 280.692 83.85 284.61 83.85V79.8805ZM275.73 78.2982C273.282 77.2375 271.524 75.9028 270.341 74.3501L267.184 76.7558C268.866 78.9636 271.227 80.6732 274.151 81.9404L275.73 78.2982ZM270.355 74.3681C269.137 72.7322 268.534 71.0517 268.462 69.2941L264.496 69.456C264.603 72.0857 265.522 74.5238 267.17 76.7379L270.355 74.3681ZM268.464 69.375C268.464 69.451 268.448 69.5505 268.404 69.6532C268.361 69.7537 268.309 69.8145 268.286 69.8384L265.479 67.0315C264.863 67.6472 264.494 68.4561 264.494 69.375H268.464ZM268.286 69.8384C268.291 69.8335 268.257 69.8675 268.181 69.9007C268.102 69.9355 268.02 69.9496 267.957 69.9496V65.9801C266.972 65.9801 266.123 66.3868 265.479 67.0315L268.286 69.8384ZM267.957 69.9496H271.381V65.9801H267.957V69.9496ZM271.381 69.9496C271.42 69.9496 271.413 69.9545 271.377 69.9432C271.359 69.9377 271.337 69.9291 271.313 69.9166C271.289 69.9041 271.266 69.8895 271.246 69.8738C271.203 69.841 271.187 69.816 271.19 69.8213C271.196 69.8289 271.221 69.8702 271.254 69.9636L275.001 68.6522C274.753 67.9458 274.34 67.2459 273.666 66.7274C272.975 66.1957 272.172 65.9801 271.381 65.9801V69.9496ZM271.187 69.7238C271.713 72.1818 273.201 74.1884 275.398 75.7579L277.706 72.5277C276.142 71.4111 275.347 70.1945 275.068 68.892L271.187 69.7238ZM275.416 75.7706C277.797 77.4316 280.938 78.1421 284.61 78.1421V74.1726C281.388 74.1726 279.157 73.5401 277.688 72.515L275.416 75.7706ZM284.61 78.1421C288.499 78.1421 291.771 77.4732 294.132 75.8432L291.876 72.5767C290.477 73.5432 288.153 74.1726 284.61 74.1726V78.1421ZM294.158 75.825C296.576 74.0977 297.809 71.6296 297.809 68.6364H293.84C293.84 70.3885 293.193 71.6361 291.851 72.5949L294.158 75.825ZM297.809 68.6364C297.809 66.6707 297.185 64.9067 295.818 63.5396L293.011 66.3465C293.524 66.8597 293.84 67.5579 293.84 68.6364H297.809ZM295.852 63.5742C294.688 62.3523 293.06 61.3908 291.122 60.6156L289.648 64.3012C291.292 64.9586 292.35 65.6535 292.977 66.3118L295.852 63.5742ZM291.122 60.6156C289.248 59.8657 286.493 58.9501 282.897 57.8713L281.757 61.6734C285.324 62.7435 287.941 63.6186 289.648 64.3012L291.122 60.6156ZM282.866 57.8621C279.448 56.898 276.827 55.8938 274.948 54.8724L273.052 58.3601C275.292 59.5771 278.223 60.6769 281.788 61.6826L282.866 57.8621ZM274.948 54.8724C273.13 53.8843 271.867 52.7157 271.052 51.405L267.681 53.5007C268.926 55.5028 270.752 57.1098 273.052 58.3601L274.948 54.8724ZM271.052 51.405C270.267 50.1412 269.807 48.4486 269.807 46.2077H265.838C265.838 48.9809 266.407 51.4517 267.681 53.5007L271.052 51.405ZM269.807 46.2077C269.807 44.1685 270.347 42.3869 271.415 40.8038L268.124 38.5843C266.595 40.8511 265.838 43.4121 265.838 46.2077H269.807ZM271.397 40.8297C272.502 39.2465 274.095 37.9635 276.271 37.014L274.684 33.3758C271.935 34.5751 269.723 36.2915 268.142 38.5584L271.397 40.8297ZM276.299 37.0017C278.446 36.0259 281.085 35.5009 284.274 35.5009V31.5313C280.66 31.5313 277.434 32.1254 274.656 33.388L276.299 37.0017ZM284.274 35.5009C287.532 35.5009 290.213 36.0856 292.385 37.1716L294.16 33.6211C291.318 32.2001 288 31.5313 284.274 31.5313V35.5009ZM292.411 37.1842C294.675 38.2759 296.283 39.6161 297.347 41.1575L300.614 38.9021C299.082 36.683 296.884 34.9343 294.135 33.6085L292.411 37.1842ZM297.347 41.1575C298.48 42.7982 299.011 44.3272 299.08 45.7649L303.045 45.5761C302.934 43.2534 302.078 41.0219 300.614 38.9021L297.347 41.1575ZM299.078 45.6705C299.078 45.5946 299.093 45.4951 299.137 45.3923C299.18 45.2919 299.232 45.2311 299.256 45.2072L302.063 48.0141C302.679 47.3983 303.047 46.5895 303.047 45.6705H299.078ZM299.135 45.34C299.241 45.2123 299.375 45.1209 299.503 45.07C299.618 45.024 299.682 45.0288 299.652 45.0288V48.9983C300.511 48.9983 301.482 48.7235 302.184 47.8813L299.135 45.34ZM299.652 45.0288H296.093V48.9983H299.652V45.0288ZM296.093 45.0288C296.006 45.0288 295.976 45.0187 295.989 45.0223C296.006 45.027 296.058 45.0452 296.123 45.0921C296.188 45.14 296.234 45.1944 296.26 45.236C296.284 45.2737 296.279 45.2808 296.267 45.2326L292.428 46.2428C292.629 47.0086 293.046 47.76 293.78 48.2971C294.502 48.8242 295.33 48.9983 296.093 48.9983V45.0288ZM296.312 45.457C295.95 42.9231 294.511 40.9138 292.283 39.4466L290.099 42.7618C291.542 43.7121 292.207 44.7918 292.382 46.0184L296.312 45.457ZM292.31 39.4652C290.071 37.9361 287.35 37.2392 284.274 37.2392V41.2087C286.75 41.2087 288.64 41.7654 290.072 42.7432L292.31 39.4652ZM284.274 37.2392C281.006 37.2392 278.176 37.8597 275.988 39.3185L278.19 42.6213C279.494 41.7522 281.454 41.2087 284.274 41.2087V37.2392ZM275.988 39.3185C273.635 40.8873 272.486 43.263 272.486 46.1406H276.455C276.455 44.4519 277.052 43.3804 278.19 42.6213L275.988 39.3185ZM272.486 46.1406C272.486 48.0273 272.993 49.7522 274.143 51.1579L277.215 48.6442C276.754 48.0802 276.455 47.298 276.455 46.1406H272.486ZM274.177 51.1984C275.281 52.4772 276.836 53.4995 278.696 54.3317L280.317 50.7083C278.775 50.0183 277.778 49.2948 277.181 48.6038L274.177 51.1984ZM278.736 54.3492C280.546 55.1113 283.12 55.965 286.412 56.912L287.509 53.0972C284.265 52.1639 281.869 51.3612 280.277 50.6908L278.736 54.3492ZM286.442 56.9205C290.184 57.9329 293.036 58.9648 295.057 59.9958L296.861 56.4599C294.494 55.2526 291.348 54.1356 287.479 53.0887L286.442 56.9205ZM295.086 60.0103C297.033 60.964 298.358 62.1133 299.196 63.4042L302.526 61.244C301.215 59.2221 299.272 57.6406 296.832 56.4454L295.086 60.0103ZM299.209 63.4251C300.011 64.6271 300.488 66.2727 300.488 68.5021H304.457C304.457 65.7174 303.86 63.2444 302.512 61.2232L299.209 63.4251ZM300.488 68.5021C300.488 72.0643 299.153 74.7265 296.461 76.7078L298.814 79.9046C302.569 77.1405 304.457 73.2666 304.457 68.5021H300.488ZM296.461 76.7078C293.683 78.7524 289.8 79.8805 284.61 79.8805V83.85C290.344 83.85 295.145 82.6054 298.814 79.9046L296.461 76.7078ZM316.713 80.1193L315.924 81.9405L315.935 81.9451L316.713 80.1193ZM310.535 75.553L308.943 76.7379L308.95 76.7469L308.957 76.7558L310.535 75.553ZM308.252 69.375H306.267V69.4155L306.269 69.456L308.252 69.375ZM308.655 68.4349L307.252 67.0315L307.252 67.0315L308.655 68.4349ZM314.9 69.3079L316.841 68.892L316.815 68.77L316.774 68.6522L314.9 69.3079ZM318.325 74.1428L317.171 75.7579L317.18 75.7643L317.189 75.7706L318.325 74.1428ZM334.777 74.21L335.905 75.8432L335.918 75.8342L335.931 75.825L334.777 74.21ZM336.187 64.943L334.75 66.3118L334.767 66.3294L334.784 66.3465L336.187 64.943ZM332.158 62.4584L332.895 60.6156L332.895 60.6156L332.158 62.4584ZM324.1 59.7724L324.67 57.8713L324.655 57.8666L324.639 57.8621L324.1 59.7724ZM315.773 56.6162L316.721 54.8724L316.721 54.8724L315.773 56.6162ZM311.14 52.4528L309.454 53.5007L309.454 53.5007L311.14 52.4528ZM311.543 39.694L309.915 38.5584L309.906 38.5713L309.897 38.5843L311.543 39.694ZM317.251 35.1949L318.044 37.014L318.058 37.008L318.072 37.0017L317.251 35.1949ZM335.046 35.3963L334.158 37.1716L334.171 37.1779L334.184 37.1842L335.046 35.3963ZM340.754 40.0298L342.387 38.9021L342.387 38.9021L340.754 40.0298ZM342.835 45.6705H344.82V45.6233L344.818 45.5761L342.835 45.6705ZM342.432 46.6106L341.029 45.2072L340.965 45.2709L340.908 45.34L342.432 46.6106ZM336.12 45.7377L334.155 46.0184L334.172 46.1319L334.201 46.2428L336.12 45.7377ZM332.964 41.1042L331.845 42.7432L331.859 42.7527L331.872 42.7618L332.964 41.1042ZM318.862 40.9699L317.761 39.3185L317.761 39.3185L318.862 40.9699ZM317.452 49.9011L315.916 51.1579L315.933 51.1784L315.95 51.1984L317.452 49.9011ZM321.28 52.52L320.469 54.3317L320.489 54.3407L320.509 54.3492L321.28 52.52ZM328.734 55.0046L328.185 56.912L328.2 56.9164L328.215 56.9205L328.734 55.0046ZM337.732 58.2279L336.83 59.9958L336.844 60.0032L336.859 60.0103L337.732 58.2279ZM342.634 62.3241L340.969 63.4042L340.976 63.4147L340.982 63.4251L342.634 62.3241ZM339.411 78.3062L340.587 79.9046L340.587 79.9046L339.411 78.3062ZM326.383 79.8805C322.87 79.8805 319.923 79.3297 317.492 78.2935L315.935 81.9451C318.966 83.2368 322.465 83.85 326.383 83.85V79.8805ZM317.503 78.2982C315.055 77.2375 313.297 75.9028 312.114 74.3501L308.957 76.7558C310.639 78.9636 313 80.6732 315.924 81.9404L317.503 78.2982ZM312.128 74.3681C310.91 72.7322 310.307 71.0517 310.235 69.2941L306.269 69.456C306.376 72.0857 307.295 74.5238 308.943 76.7379L312.128 74.3681ZM310.237 69.375C310.237 69.451 310.221 69.5505 310.177 69.6532C310.134 69.7537 310.083 69.8145 310.059 69.8384L307.252 67.0315C306.636 67.6472 306.267 68.4561 306.267 69.375H310.237ZM310.059 69.8384C310.064 69.8335 310.03 69.8675 309.954 69.9007C309.875 69.9355 309.793 69.9496 309.73 69.9496V65.9801C308.745 65.9801 307.896 66.3868 307.252 67.0315L310.059 69.8384ZM309.73 69.9496H313.154V65.9801H309.73V69.9496ZM313.154 69.9496C313.193 69.9496 313.186 69.9545 313.15 69.9432C313.132 69.9377 313.11 69.9291 313.086 69.9166C313.062 69.9041 313.039 69.8895 313.019 69.8738C312.976 69.841 312.96 69.816 312.963 69.8213C312.969 69.8289 312.994 69.8702 313.027 69.9636L316.774 68.6522C316.526 67.9458 316.113 67.2459 315.439 66.7274C314.748 66.1957 313.945 65.9801 313.154 65.9801V69.9496ZM312.96 69.7238C313.486 72.1818 314.974 74.1884 317.171 75.7579L319.479 72.5277C317.915 71.4111 317.12 70.1945 316.841 68.892L312.96 69.7238ZM317.189 75.7706C319.57 77.4316 322.711 78.1421 326.383 78.1421V74.1726C323.161 74.1726 320.93 73.5401 319.461 72.515L317.189 75.7706ZM326.383 78.1421C330.272 78.1421 333.544 77.4732 335.905 75.8432L333.649 72.5767C332.25 73.5432 329.926 74.1726 326.383 74.1726V78.1421ZM335.931 75.825C338.349 74.0977 339.582 71.6296 339.582 68.6364H335.613C335.613 70.3885 334.966 71.6361 333.624 72.5949L335.931 75.825ZM339.582 68.6364C339.582 66.6707 338.958 64.9067 337.591 63.5396L334.784 66.3465C335.297 66.8597 335.613 67.5579 335.613 68.6364H339.582ZM337.625 63.5742C336.461 62.3523 334.833 61.3908 332.895 60.6156L331.421 64.3012C333.065 64.9586 334.123 65.6535 334.75 66.3118L337.625 63.5742ZM332.895 60.6156C331.021 59.8657 328.266 58.9501 324.67 57.8713L323.53 61.6734C327.097 62.7435 329.715 63.6186 331.421 64.3012L332.895 60.6156ZM324.639 57.8621C321.221 56.898 318.6 55.8938 316.721 54.8724L314.825 58.3601C317.065 59.5771 319.996 60.6769 323.561 61.6826L324.639 57.8621ZM316.721 54.8724C314.903 53.8843 313.64 52.7157 312.825 51.405L309.454 53.5007C310.699 55.5028 312.525 57.1098 314.825 58.3601L316.721 54.8724ZM312.825 51.405C312.04 50.1412 311.58 48.4486 311.58 46.2077H307.611C307.611 48.9809 308.18 51.4517 309.454 53.5007L312.825 51.405ZM311.58 46.2077C311.58 44.1685 312.121 42.3869 313.188 40.8038L309.897 38.5843C308.368 40.8511 307.611 43.4121 307.611 46.2077H311.58ZM313.17 40.8297C314.275 39.2465 315.868 37.9635 318.044 37.014L316.457 33.3758C313.708 34.5751 311.496 36.2915 309.915 38.5584L313.17 40.8297ZM318.072 37.0017C320.219 36.0259 322.858 35.5009 326.047 35.5009V31.5313C322.433 31.5313 319.207 32.1254 316.429 33.388L318.072 37.0017ZM326.047 35.5009C329.305 35.5009 331.986 36.0856 334.158 37.1716L335.933 33.6211C333.091 32.2001 329.773 31.5313 326.047 31.5313V35.5009ZM334.184 37.1842C336.448 38.2759 338.056 39.6161 339.12 41.1575L342.387 38.9021C340.855 36.683 338.657 34.9343 335.908 33.6085L334.184 37.1842ZM339.12 41.1575C340.253 42.7982 340.784 44.3272 340.853 45.7649L344.818 45.5761C344.707 43.2534 343.851 41.0219 342.387 38.9021L339.12 41.1575ZM340.851 45.6705C340.851 45.5946 340.866 45.4951 340.91 45.3923C340.953 45.2919 341.005 45.2311 341.029 45.2072L343.836 48.0141C344.452 47.3983 344.82 46.5895 344.82 45.6705H340.851ZM340.908 45.34C341.014 45.2123 341.148 45.1209 341.276 45.07C341.391 45.024 341.455 45.0288 341.425 45.0288V48.9983C342.284 48.9983 343.255 48.7235 343.957 47.8813L340.908 45.34ZM341.425 45.0288H337.866V48.9983H341.425V45.0288ZM337.866 45.0288C337.779 45.0288 337.749 45.0187 337.762 45.0223C337.779 45.027 337.831 45.0452 337.896 45.0921C337.961 45.14 338.007 45.1944 338.033 45.236C338.057 45.2737 338.052 45.2808 338.04 45.2326L334.201 46.2428C334.402 47.0086 334.819 47.76 335.553 48.2971C336.275 48.8242 337.103 48.9983 337.866 48.9983V45.0288ZM338.085 45.457C337.723 42.9231 336.284 40.9138 334.056 39.4466L331.872 42.7618C333.315 43.7121 333.98 44.7918 334.155 46.0184L338.085 45.457ZM334.083 39.4652C331.844 37.9361 329.123 37.2392 326.047 37.2392V41.2087C328.523 41.2087 330.413 41.7654 331.845 42.7432L334.083 39.4652ZM326.047 37.2392C322.779 37.2392 319.949 37.8597 317.761 39.3185L319.963 42.6213C321.267 41.7522 323.227 41.2087 326.047 41.2087V37.2392ZM317.761 39.3185C315.408 40.8873 314.259 43.263 314.259 46.1406H318.228C318.228 44.4519 318.825 43.3804 319.963 42.6213L317.761 39.3185ZM314.259 46.1406C314.259 48.0273 314.766 49.7522 315.916 51.1579L318.988 48.6442C318.527 48.0802 318.228 47.298 318.228 46.1406H314.259ZM315.95 51.1984C317.054 52.4772 318.609 53.4995 320.469 54.3317L322.09 50.7083C320.548 50.0183 319.551 49.2948 318.954 48.6038L315.95 51.1984ZM320.509 54.3492C322.319 55.1113 324.893 55.965 328.185 56.912L329.282 53.0972C326.038 52.1639 323.642 51.3612 322.05 50.6908L320.509 54.3492ZM328.215 56.9205C331.957 57.9329 334.809 58.9648 336.83 59.9958L338.634 56.4599C336.267 55.2526 333.121 54.1356 329.252 53.0887L328.215 56.9205ZM336.859 60.0103C338.806 60.964 340.131 62.1133 340.969 63.4042L344.299 61.244C342.988 59.2221 341.045 57.6406 338.605 56.4454L336.859 60.0103ZM340.982 63.4251C341.784 64.6271 342.261 66.2727 342.261 68.5021H346.23C346.23 65.7174 345.633 63.2444 344.285 61.2232L340.982 63.4251ZM342.261 68.5021C342.261 72.0643 340.926 74.7265 338.234 76.7078L340.587 79.9046C344.342 77.1405 346.23 73.2666 346.23 68.5021H342.261ZM338.234 76.7078C335.456 78.7524 331.573 79.8805 326.383 79.8805V83.85C332.117 83.85 336.918 82.6054 340.587 79.9046L338.234 76.7078Z" fill="#333333"/>
</svg>
