<?xml version="1.0" standalone="no"?>
<!DOCTYPE svg PUBLIC "-//W3C//DTD SVG 20010904//EN"
 "http://www.w3.org/TR/2001/REC-SVG-20010904/DTD/svg10.dtd">
<svg version="1.0" xmlns="http://www.w3.org/2000/svg"
 width="377.000000pt" height="377.000000pt" viewBox="0 0 377.000000 377.000000"
 preserveAspectRatio="xMidYMid meet">
<metadata>
Created by potrace 1.11, written by Peter Selinger 2001-2013
</metadata>
<g transform="translate(0.000000,377.000000) scale(0.100000,-0.100000)"
fill="#000000" stroke="none">
<path d="M1710 3748 c-58 -30 -80 -64 -119 -190 -42 -135 -58 -171 -90 -202
-24 -23 -110 -66 -132 -66 -5 0 -56 -21 -111 -47 -143 -65 -159 -64 -331 26
-123 64 -141 70 -182 66 -65 -6 -92 -24 -190 -124 -143 -146 -146 -170 -45
-367 82 -162 87 -193 42 -289 -16 -33 -46 -105 -67 -160 -54 -141 -74 -159
-246 -212 -75 -24 -147 -52 -162 -63 -51 -40 -67 -94 -67 -227 0 -151 4 -173
46 -221 30 -36 47 -44 178 -86 179 -58 196 -72 245 -207 19 -52 48 -121 65
-154 24 -47 30 -73 30 -120 -1 -54 -7 -72 -68 -190 -65 -123 -68 -133 -63
-182 6 -62 13 -72 109 -170 108 -112 127 -124 191 -126 49 -1 68 6 186 66 166
86 177 87 332 19 64 -28 134 -56 157 -63 23 -7 59 -27 80 -45 41 -35 53 -61
98 -209 55 -181 89 -203 301 -201 138 1 141 2 183 31 50 34 64 63 112 220 28
95 38 115 74 150 28 27 60 46 100 59 32 10 96 36 141 57 94 43 137 56 175 53
14 -2 86 -33 159 -70 198 -100 231 -95 378 55 139 142 142 170 41 373 -66 132
-70 143 -65 191 4 27 19 75 34 106 16 31 40 89 55 129 59 166 68 173 279 238
108 33 144 56 174 113 21 40 23 57 23 175 0 204 -23 237 -212 295 -188 58
-215 79 -257 201 -12 36 -39 99 -58 140 -23 48 -38 95 -41 130 -4 52 0 62 62
183 106 205 103 235 -36 376 -105 107 -157 137 -220 127 -22 -4 -97 -36 -167
-72 -153 -79 -192 -84 -288 -36 -32 16 -103 46 -157 67 -135 52 -146 65 -203
243 -69 214 -92 232 -308 232 -105 0 -126 -3 -165 -22z m275 -802 c220 -21
449 -138 635 -325 223 -224 332 -480 325 -761 -4 -159 -37 -288 -111 -428
-199 -377 -585 -625 -961 -616 -139 3 -235 23 -357 75 -323 137 -581 435 -668
770 -22 89 -31 292 -15 374 28 145 87 287 174 418 63 95 208 240 308 309 107
74 255 143 347 162 13 3 34 8 48 11 14 4 52 9 85 12 33 3 61 6 62 7 3 3 51 -1
128 -8z"/>
</g>
</svg>
